#!OML:ASF F:\VICON\USERDATA\Patient Classification 1\PLAYGROUND\JustinFriday\JustinFriday.ASF
:FULLY-SPECIFIED
:DEGREES
3146
root 24.302 17.9611 11.5633 -64.813 81.792 -64.3889
lowerback 12.7355 1.26467 4.71886
upperback 3.57348 2.76068 5.2907
thorax -3.43031 1.45979 2.44906
lowerneck -2.60295 7.74159 -2.28746
upperneck 17.5736 11.5564 -2.23972
head 5.76074 5.48723 0.342762
rclavicle 9.74045e-015 3.57812e-014
rhumerus -30.0194 -18.1852 -67.0892
rradius 26.7108
rwrist -9.85322
rhand -17.7306 -23.5127
rfingers 7.12502
rthumb 8.53036 -53.3204
lclavicle 9.74045e-015 3.57812e-014
lhumerus -39.3752 19.2687 68.6248
lradius 26.9142
lwrist -2.74179
lhand -11.759 0.122394
lfingers 7.12502
lthumb 14.2893 29.6107
rfemur -18.8288 6.35527 23.2243
rtibia 26.8627
rfoot -6.03181 0.311884
rtoes 13.3062
lfemur -4.64716 -1.82086 -13.4172
ltibia 51.0743
lfoot 10.5865 -18.5458
ltoes 6.43918
3147
root 24.3932 17.9704 11.6127 -72.668 80.989 -72.1175
lowerback 13.2677 1.29986 5.59896
upperback 3.49844 3.01501 5.59627
thorax -3.77572 1.58536 2.22429
lowerneck -5.05969 7.41131 0.854482
upperneck 20.2699 11.5446 -4.48583
head 7.37025 5.41421 -0.647886
rclavicle -1.59028e-015 1.90833e-014
rhumerus -30.0296 -17.9976 -66.9862
rradius 26.5925
rwrist -9.85726
rhand -17.3856 -23.563
rfingers 7.12502
rthumb 8.8633 -53.3569
lclavicle -1.59028e-015 1.90833e-014
lhumerus -39.231 19.086 68.322
lradius 25.9854
lwrist -3.46634
lhand -11.3485 0.300174
lfingers 7.12502
lthumb 14.6847 29.7601
rfemur -17.7362 6.79976 24.6655
rtibia 25.8333
rfoot -5.57682 -0.874331
rtoes 16.1139
lfemur -6.5633 -1.68216 -11.5798
ltibia 53.8712
lfoot 12.1672 -19.1846
ltoes 2.19481
3148
root 24.5408 18.0015 11.6215 -77.2798 80.6714 -76.3286
lowerback 13.3493 1.23314 6.26792
upperback 3.66441 3.03483 5.683
thorax -3.61559 1.60448 1.94004
lowerneck -4.7572 7.38018 0.0630665
upperneck 19.7951 11.3735 -3.68975
head 7.06196 5.35692 -0.314077
rclavicle 1.33186e-014 3.26007e-014
rhumerus -29.9027 -17.6328 -66.9186
rradius 26.6001
rwrist -9.61789
rhand -17.1927 -23.7133
rfingers 7.12502
rthumb 9.04941 -53.4992
lclavicle 1.33186e-014 3.26007e-014
lhumerus -39.4101 19.5486 67.8667
lradius 25.3801
lwrist -4.51036
lhand -10.8327 0.724216
lfingers 7.12502
lthumb 15.1817 30.1473
rfemur -16.1063 6.27214 25.3172
rtibia 24.8733
rfoot -5.50143 -0.873355
rtoes 17.2006
lfemur -7.4916 -1.79796 -10.9346
ltibia 56.2149
lfoot 13.3769 -19.1238
ltoes -0.570225
3149
root 24.6646 18.0255 11.6336 -82.16 79.6612 -81.0353
lowerback 13.5331 1.14334 7.56183
upperback 3.666 3.14908 5.89675
thorax -3.65624 1.66475 1.42473
lowerneck -5.74716 7.34861 1.79649
upperneck 20.764 11.4659 -4.82974
head 7.72837 5.38791 -0.869737
rclavicle 1.80894e-014 5.00937e-014
rhumerus -29.8883 -17.8259 -66.7245
rradius 26.6277
rwrist -9.01858
rhand -17.297 -23.9984
rfingers 7.12502
rthumb 8.9488 -53.7887
lclavicle 1.80894e-014 5.00937e-014
lhumerus -39.5175 19.6223 67.5215
lradius 24.9
lwrist -5.05157
lhand -10.4594 0.759482
lfingers 7.12502
lthumb 15.5412 30.155
rfemur -14.9368 6.17381 26.6569
rtibia 24.1459
rfoot -5.61108 -1.3785
rtoes 16.5521
lfemur -8.83092 -1.92281 -9.37407
ltibia 58.51
lfoot 14.9412 -18.828
ltoes 1.28418
3150
root 24.7836 18.0426 11.6552 -85.4495 79.6776 -83.9901
lowerback 13.8607 1.23438 7.60507
upperback 3.73436 3.31146 5.84475
thorax -3.75274 1.74516 1.31055
lowerneck -4.19375 7.19836 0.569
upperneck 19.2602 11.0364 -3.79584
head 6.81511 5.24495 -0.490099
rclavicle -3.10104e-014 -3.89618e-014
rhumerus -29.8416 -17.6493 -66.6537
rradius 26.6583
rwrist -8.67591
rhand -17.3286 -23.9981
rfingers 7.12502
rthumb 8.91822 -53.7896
lclavicle -3.10104e-014 -3.89618e-014
lhumerus -39.4768 19.4265 67.2836
lradius 24.6491
lwrist -5.11454
lhand -9.96128 0.624607
lfingers 7.12502
lthumb 16.0209 29.9822
rfemur -13.8321 6.1664 26.8341
rtibia 23.7433
rfoot -5.88258 -2.01582
rtoes 15.9083
lfemur -9.90927 -1.8871 -9.1141
ltibia 60.5341
lfoot 15.3737 -18.6547
ltoes 3.71094
3151
root 24.8955 18.0309 11.6803 -88.9545 79.0296 -87.3319
lowerback 14.0449 1.22761 8.20015
upperback 3.76222 3.43475 6.00564
thorax -3.79585 1.81026 1.1265
lowerneck -4.34461 7.04368 1.00265
upperneck 19.6242 10.9153 -4.24372
head 7.00593 5.17663 -0.692372
rclavicle -3.97569e-016 3.18055e-015
rhumerus -29.648 -16.8127 -66.7812
rradius 26.6106
rwrist -8.72642
rhand -17.5252 -23.5292
rfingers 7.12502
rthumb 8.72853 -53.3287
lclavicle -3.97569e-016 3.18055e-015
lhumerus -39.5108 19.3715 67.0562
lradius 24.4994
lwrist -5.4938
lhand -9.46547 0.728396
lfingers 7.12502
lthumb 16.4983 30.0469
rfemur -12.8902 6.05472 27.7373
rtibia 23.1289
rfoot -5.83751 -2.66975
rtoes 14.1482
lfemur -11.2826 -0.683764 -7.82772
ltibia 62.4997
lfoot 14.2224 -19.7357
ltoes 2.0547
3152
root 25.0057 18.0147 11.7051 -92.7142 78.6056 -90.9816
lowerback 14.1316 1.19296 8.45653
upperback 3.80905 3.45847 6.16642
thorax -3.78836 1.82926 1.14938
lowerneck -4.58734 7.01621 0.887222
upperneck 20.0053 10.9054 -4.0862
head 7.15697 5.16736 -0.606741
rclavicle -7.95139e-015 1.51076e-014
rhumerus -29.3551 -15.9389 -66.9204
rradius 26.6046
rwrist -8.74367
rhand -18.1389 -23.3631
rfingers 7.12502
rthumb 8.13632 -53.1864
lclavicle -7.95139e-015 1.51076e-014
lhumerus -39.6021 19.1667 67.1234
lradius 24.4426
lwrist -5.88014
lhand -8.99933 1.02742
lfingers 7.12502
lthumb 16.9471 30.3081
rfemur -12.272 5.90905 28.3375
rtibia 22.9814
rfoot -5.97105 -3.30479
rtoes 11.8249
lfemur -12.7874 0.456727 -6.76978
ltibia 64.4251
lfoot 12.7551 -20.2127
ltoes 2.21142
3153
root 25.1363 18.0824 11.717 -96.3952 78.5837 -94.5898
lowerback 13.9878 1.1934 8.48008
upperback 3.91266 3.43678 6.13321
thorax -3.59706 1.82876 1.11147
lowerneck -4.95388 6.99234 0.955481
upperneck 20.2994 10.8819 -4.0154
head 7.31668 5.15354 -0.574832
rclavicle 1.5704e-014 2.38542e-015
rhumerus -29.0082 -15.7366 -66.9289
rradius 26.4769
rwrist -8.37844
rhand -18.4698 -23.6352
rfingers 7.12502
rthumb 7.81688 -53.4707
lclavicle 1.5704e-014 2.38542e-015
lhumerus -40.3995 21.9428 65.5068
lradius 24.5712
lwrist -9.33375
lhand -7.80863 0.605632
lfingers 7.12502
lthumb 18.093 29.7841
rfemur -11.3618 5.7501 28.3774
rtibia 22.5249
rfoot -6.2433 -3.82738
rtoes 11.9721
lfemur -13.7027 -1.38769 -7.32559
ltibia 65.6328
lfoot 10.798 -17.643
ltoes 5.2897
3154
root 25.2521 18.0514 11.7169 -99.6735 78.3958 -97.6197
lowerback 14.0273 1.1697 8.92125
upperback 4.06571 3.46204 6.03258
thorax -3.4214 1.85246 0.760449
lowerneck -5.094 6.96111 1.35271
upperneck 20.1586 10.8719 -4.47156
head 7.34344 5.13797 -0.7791
rclavicle 3.57812e-015 6.36111e-015
rhumerus -28.534 -16.5991 -66.6552
rradius 25.8909
rwrist -7.47016
rhand -18.434 -23.726
rfingers 7.12502
rthumb 7.85147 -53.5602
lclavicle 3.57812e-015 6.36111e-015
lhumerus -39.6576 20.9767 66.0361
lradius 23.8062
lwrist -8.27936
lhand -7.83571 0.307958
lfingers 7.12502
lthumb 18.0669 29.4889
rfemur -10.5723 5.18236 28.5437
rtibia 22.435
rfoot -6.56819 -3.90279
rtoes 13.0421
lfemur -14.9436 1.00661 -6.35888
ltibia 66.9885
lfoot 8.97262 -18.9518
ltoes 5.36757
3155
root 25.3628 18.1063 11.7185 -103.345 78.8399 -101.161
lowerback 14.1863 1.26327 8.52946
upperback 4.15054 3.52778 5.84476
thorax -3.42621 1.88484 0.762603
lowerneck -4.83405 6.72326 0.956225
upperneck 19.9643 10.5089 -4.15009
head 7.18228 4.97416 -0.660274
rclavicle 7.95139e-015 1.19271e-014
rhumerus -28.2202 -16.9439 -66.4141
rradius 25.7185
rwrist -7.22669
rhand -18.4627 -23.722
rfingers 7.12502
rthumb 7.8238 -53.5573
lclavicle 7.95139e-015 1.19271e-014
lhumerus -39.497 20.9789 66.1683
lradius 23.7744
lwrist -8.24684
lhand -8.15566 0.0750697
lfingers 7.12502
lthumb 17.7591 29.2841
rfemur -9.81154 4.52819 28.0208
rtibia 22.1238
rfoot -6.5894 -4.03162
rtoes 11.3718
lfemur -15.7157 -1.2894 -7.87116
ltibia 67.5526
lfoot 6.85188 -16.1459
ltoes 4.69597
3156
root 25.4729 18.1167 11.7356 -107.9 79.6409 -105.952
lowerback 14.0113 1.47572 7.32326
upperback 4.09821 3.59029 5.66561
thorax -3.44735 1.90786 1.23305
lowerneck -4.78059 6.56506 0.734293
upperneck 20.0568 10.31 -4.02628
head 7.1788 4.87724 -0.602419
rclavicle 4.03533e-014 8.26944e-014
rhumerus -28.1272 -16.4198 -66.261
rradius 25.9155
rwrist -7.33553
rhand -18.416 -23.4399
rfingers 7.12502
rthumb 7.86881 -53.2734
lclavicle 4.03533e-014 8.26944e-014
lhumerus -39.7894 21.1502 66.1852
lradius 24.2439
lwrist -8.51536
lhand -8.19377 -0.18865
lfingers 7.12502
lthumb 17.7224 29.0237
rfemur -9.72205 4.22229 27.0564
rtibia 22.2462
rfoot -6.44483 -4.73008
rtoes 5.71135
lfemur -17.2283 -0.669527 -8.88088
ltibia 68.2008
lfoot 5.48263 -15.89
ltoes 4.82687
3157
root 25.5907 18.1176 11.7599 -111.34 79.3052 -109.192
lowerback 14.1449 1.55024 7.24661
upperback 4.15254 3.70191 5.73522
thorax -3.46946 1.96753 1.32664
lowerneck -4.68048 6.45479 0.739771
upperneck 19.9258 10.1671 -4.11076
head 7.11921 4.80901 -0.647936
rclavicle -4.01545e-014 -9.62118e-014
rhumerus -27.9971 -16.4399 -66.0626
rradius 25.8703
rwrist -6.66986
rhand -18.4605 -23.0606
rfingers 7.12502
rthumb 7.82589 -52.8957
lclavicle -4.01545e-014 -9.62118e-014
lhumerus -39.9472 20.82 66.3858
lradius 24.7776
lwrist -8.05706
lhand -8.1976 -0.333254
lfingers 7.12502
lthumb 17.7187 28.8795
rfemur -8.9892 4.04301 27.3805
rtibia 22.1062
rfoot -6.33072 -5.54127
rtoes 1.7527
lfemur -18.1704 -0.0947815 -8.58196
ltibia 68.5631
lfoot 4.06041 -15.5927
ltoes 3.27462
3158
root 25.7062 18.1243 11.7785 -113.869 78.5781 -111.426
lowerback 14.3334 1.5338 7.78192
upperback 4.28734 3.78965 5.79633
thorax -3.39605 2.02238 1.07721
lowerneck -4.89941 6.37524 0.576126
upperneck 19.8332 10.0249 -3.92122
head 7.1051 4.73931 -0.566762
rclavicle 2.80286e-014 7.4743e-014
rhumerus -27.8171 -16.8703 -65.9706
rradius 25.9749
rwrist -5.84214
rhand -19.1661 -23.5419
rfingers 7.12502
rthumb 7.14482 -53.4013
lclavicle 2.80286e-014 7.4743e-014
lhumerus -39.8834 20.631 66.4575
lradius 25.2515
lwrist -7.60919
lhand -8.91849 0.351647
lfingers 7.12502
lthumb 17.0249 29.6256
rfemur -8.25356 3.93014 28.0372
rtibia 22.2254
rfoot -6.952 -6.00936
rtoes 4.32333
lfemur -18.9945 0.302331 -7.83954
ltibia 68.8188
lfoot 3.16215 -15.0695
ltoes 3.73764
3159
root 25.8194 18.1393 11.7865 -116.548 78.1128 -114.164
lowerback 14.2286 1.54148 8.02467
upperback 4.32911 3.82515 5.80209
thorax -3.27795 2.04704 0.949167
lowerneck -5.22273 6.22128 0.386915
upperneck 20.1405 9.82835 -3.71419
head 7.23698 4.63849 -0.4683
rclavicle 8.15017e-015 2.62396e-014
rhumerus -27.611 -16.7794 -65.9585
rradius 26.203
rwrist -5.69729
rhand -20.0624 -24.2213
rfingers 7.12502
rthumb 6.27958 -54.1082
lclavicle 8.15017e-015 2.62396e-014
lhumerus -39.7319 20.2504 66.7644
lradius 25.6073
lwrist -6.74449
lhand -9.50018 0.941201
lfingers 7.12502
lthumb 16.4649 30.2625
rfemur -7.81208 3.73142 28.2797
rtibia 22.1634
rfoot -7.52686 -6.30907
rtoes 7.45068
lfemur -20.1697 0.694058 -7.59197
ltibia 68.9027
lfoot 2.45062 -14.6239
ltoes 5.21096
